<?xml version="1.0" ?><!DOCTYPE svg  PUBLIC '-//W3C//DTD SVG 1.1//EN'  'http://www.w3.org/Graphics/SVG/1.1/DTD/svg11.dtd'><svg height="128px" id="Layer_1" style="enable-background:new 0 0 128 128;" version="1.1" viewBox="0 0 128 128" width="128px" xml:space="preserve" xmlns="http://www.w3.org/2000/svg" xmlns:xlink="http://www.w3.org/1999/xlink"><style type="text/css">
<![CDATA[
	.st0{fill-rule:evenodd;clip-rule:evenodd;}
]]>
</style><path d="M122.08,23.533c0,0-18.05,0-24.051,0l-1.718,0.295v2.309c0,0.273,0.819,0.5,1.046,0.669  c0.217,0.182,0.806,0.283,1.049,0.283l2.178,0.109c2.472,0.115,3.225,0.652,4.187,1.558c0.946,0.936,1.1,2.525,0.363,4.76  L83.881,89.001L83.07,88.76L69.568,58.388c0.196-0.455,0.313-0.71,0.313-0.71l11.053-22.719c1.286-2.396,2.529-4.538,3.164-5.537  c1.154-1.82,1.716-2.163,4.861-2.322c0.644,0,0.889-0.316,0.889-0.954v-2.297l-0.161-0.247c0,0-13.213-0.046-19.23,0l0.006,0.235  v2.3c0,0.281-0.154,0.506,0.058,0.675c0.226,0.182,0.322,0.277,0.567,0.277l0.901,0.113c2.461,0.117,3.56,0.824,3.895,1.265  c0.589,0.795,0.861,1.643-0.56,5.057L66.811,52.16l-7.69-17.289c-2.521-5.521-3.146-7.231,0.657-7.552l1.021-0.234  c0.731,0,0.616-0.291,0.616-0.84v-2.416l-0.076-0.2c0,0-14.088,0-20.516,0.004l-0.087,0.239v2.422c0,0.542,0.538,0.685,1.53,0.834  c3.561,0.512,3.5,0.921,7.016,8.59c0.527,1.15,2.08,4.614,2.08,4.614l8.02,17.307c0,0,0.909,2.223,2.332,5.674l-11.65,25.542  l-0.666-0.185c0,0-18.083-41.902-23.314-55.92c-0.549-1.446-0.79-2.525-0.79-3.191c0-1.424,1.169-2.197,3.507-2.299l3.555-0.127  c0.728,0,1.919-0.304,1.919-0.939v-2.298l-1.07-0.239c0,0-22.154-0.027-26.628,0l-0.736,0.239v2.418c0,0.433,0.58,0.705,1.584,0.819  c2.752,0.167,4.602,0.645,5.468,1.453c0.865,0.811,1.802,2.862,3.016,6.06c6.576,17.349,20.553,48.312,27.357,65.951  c1.955,4.811,4.423,5.56,7.41-0.154c3.073-6.265,9.275-20.174,13.799-30.44c4.234,10.24,9.998,24.096,12.777,30.375  c2.214,5.024,4.737,5.518,7.298,0.151C91.246,84.171,110.81,34.95,110.81,34.95c0.848-2.417,2.028-4.277,3.552-5.629  c1.508-1.334,3.757-2.09,6.909-2.236c0.641,0,0.889-0.324,0.889-0.947v-2.309L122.08,23.533z"/></svg>